<?xml version="1.0" encoding="utf-8"?>
<!DOCTYPE svg PUBLIC "-//W3C//DTD SVG 1.0//EN" "http://www.w3.org/TR/2001/REC-SVG-20010904/DTD/svg10.dtd">
<svg version="1.0" xmlns="http://www.w3.org/2000/svg" width="1024px" height="1024px" viewBox="0 0 1024 1024" preserveAspectRatio="xMidYMid meet">
 <g fill="#003a94">
  <path d="M487.5 852.4 c-85.3 -9.7 -150 -50.6 -185.8 -117.4 -9.2 -17.1 -18.9 -45 -18.9 -54.1 0.1 -11.5 8.8 -19.8 20.8 -19.9 9.4 0 17 5.9 19.5 15.4 3 11.2 6.3 21.4 8.6 26.5 11 24.4 19.8 37.6 35.8 53.7 17.7 17.9 35.5 29.5 61 39.7 20.8 8.4 36.4 12.4 60 15.4 13.9 1.7 46.3 2.2 47.4 0.7 2.2 -3.1 5.5 -4.4 15.1 -5.9 16.7 -2.5 36.2 -8.1 50 -14.4 5.6 -2.6 9.2 -2.8 8.3 -0.5 -0.5 1.4 -0.2 1.6 2.1 1 6.5 -1.6 31.6 -18.8 31.6 -21.6 -0.1 -2.8 -4.8 -15.4 -5.9 -15.8 -0.7 -0.2 -1.9 0.2 -2.8 1 -1.2 0.9 -1.7 1 -2 0.1 -1 -2.8 -12.2 -19.9 -17.4 -26.4 -5.2 -6.6 -5.6 -7.3 -4.6 -10 1 -2.6 0.7 -3.2 -4.3 -8.6 -5.7 -6 -21.4 -20.6 -26.4 -24.5 -1.6 -1.3 -5.4 -4.3 -8.5 -6.8 -5.1 -4.2 -22 -16.9 -34.6 -26 -2.7 -2 -7.7 -5.4 -10.9 -7.5 -5 -3.3 -6.3 -4.9 -8.7 -10.1 -4.8 -10.6 -7 -20.7 -7.6 -35.6 -0.4 -10.3 -0.3 -13.8 0.6 -13.8 0.6 0 1.4 0.7 1.7 1.5 0.4 0.8 1.1 1.5 1.6 1.5 0.6 0 3.7 1.8 7 4 l6 4 10.1 -10.7 c24.6 -25.9 24 -25.3 27.8 -25.3 4.9 0 8.9 3.7 8.9 8.3 0 4.6 -0.9 5.7 -24 30 -7.2 7.6 -7.4 7.9 -5.5 9.3 1.1 0.8 2.8 2.1 3.8 2.9 0.9 0.8 2 1.5 2.4 1.5 0.3 0 2.9 1.7 5.7 3.8 2.8 2.1 6.5 4.6 8.1 5.6 1.7 1.1 6.3 4.4 10.4 7.5 l7.4 5.5 16.6 -17.2 c15.6 -16.1 16.9 -17.2 20.3 -17.2 5.8 0 10.4 6 9 11.4 -0.4 1.4 -7 9.1 -14.7 17.2 -7.7 8.1 -14.4 15.3 -14.9 16.1 -0.6 1.1 -0.1 2.2 1.7 3.7 1.4 1.1 6.1 5 10.4 8.6 4.3 3.6 10.8 9.4 14.5 12.9 6.8 6.4 6.8 6.4 8.9 4.5 2.1 -1.9 2.1 -1.9 8.1 4.6 6.9 7.5 16.6 19.2 19.3 23.3 1.4 2.3 1.6 3.2 0.7 5.2 -1 2.3 -0.4 3.8 6 14.5 3.9 6.6 7.6 12 8.3 12 0.6 0 3.6 -4.2 6.6 -9.2 8.9 -15 15 -30.8 18.5 -48.1 2.1 -10.6 2.9 -36.7 1.5 -46.8 -1.4 -9.4 -6.3 -27.9 -9.2 -34.6 -1.8 -4.2 -3.9 -5.7 -3.9 -2.8 0 3.8 -2.9 0.7 -7.2 -7.8 -7.8 -15.2 -6 -15.1 -19 -1.4 -10.6 11 -14.8 13.9 -14.8 10.1 0 -1.2 -0.5 -1.4 -1.7 -0.9 -4.6 2 -7.9 1.7 -11.1 -1 -2.6 -2.2 -3.2 -3.4 -3.2 -6.5 0 -3.6 0.9 -4.8 10.7 -15.2 6 -6.2 13 -13.4 15.6 -16 3.8 -3.7 4.7 -5.2 4.2 -6.9 -0.8 -2.5 -31.2 -32.9 -33 -32.9 -0.7 0 -7.8 7.1 -15.8 15.8 -21.2 22.9 -21.8 23.4 -26.7 23.6 -3.4 0.1 -4.6 -0.4 -6.6 -2.7 -1.5 -1.8 -2.4 -4.1 -2.4 -6.2 0 -2.9 1.4 -4.9 10.6 -14.7 18.9 -20.1 25.6 -27.7 25.2 -28.7 -0.2 -0.8 -7.9 -6.4 -34.8 -25.8 -9.4 -6.7 -27 -18.3 -27.9 -18.3 -0.5 0 -1.1 0.7 -1.5 1.5 -1.4 3.8 -2.2 0.6 -2.3 -9.2 -0.2 -17.4 -5.7 -34.1 -15.3 -46.2 -3.5 -4.4 -5.2 -9.1 -3.4 -9.1 1.2 0 6.6 3.5 45 29 33.8 22.5 46.2 31 52.9 36.2 0.6 0.4 4.6 3.5 9 7 4.4 3.4 8.2 6.4 8.5 6.8 0.3 0.3 2.5 2.1 5 3.9 2.5 1.9 5.5 4.4 6.7 5.5 1.2 1.2 6.6 6.2 12 11.1 46.2 42.4 69.7 85.4 75.4 138 2.7 24.9 -2.1 59.8 -11.6 85 -9.5 25 -26.4 50.6 -46.9 71.1 -11.3 11.3 -29.9 26.4 -32.4 26.4 -0.6 0 -2.3 1.1 -3.7 2.5 -3.3 3 -27.2 15.1 -38 19.3 -10.4 3.9 -30.7 9.7 -41.5 11.7 -23.8 4.4 -57.5 5.6 -81.5 2.9z"/>
  <path d="M452 598.2 c-36.2 -24.2 -46.5 -31.4 -62.9 -44.1 -33.2 -25.6 -60.9 -54.2 -77.6 -79.7 -20.1 -30.8 -30 -61.5 -31.2 -96.4 -0.9 -27 1.8 -42.2 13.2 -73.9 12.7 -35.5 43.3 -73.4 78 -96.5 50.9 -34 112.7 -45.2 178 -32.5 12.4 2.5 18.2 4.6 21.5 8.1 3 3.1 6 9.6 6 13.2 0 8.4 -5.8 17.1 -13.6 20.1 -4.5 1.7 -5 1.7 -13.8 0 -8.6 -1.7 -9.4 -1.7 -11.7 -0.2 -2.3 1.6 -3.4 1.6 -12.5 0.2 -6.1 -0.9 -16.9 -1.5 -28.1 -1.5 -16.4 0 -18.2 -0.2 -17.6 -1.7 0.6 -1.4 -0.2 -1.5 -6.8 -0.9 -24.3 2.4 -53.4 12.2 -72.1 24.4 -12.8 8.3 -17.6 11.8 -18.7 13.4 -0.8 1.3 -0.3 3.6 2.5 10.4 1.9 4.8 4.3 10.1 5.2 11.8 3 5.6 10.7 17 13.4 20 2.6 2.9 2.8 2.9 4.6 1.3 1.8 -1.7 2.1 -1.6 5.6 2.8 2 2.4 8 8.8 13.2 14.1 9.3 9.2 9.5 9.6 8 11.8 -1.4 2.2 -1.3 2.5 3.2 6.4 6.2 5.3 30 24.2 33.2 26.3 1.4 0.9 3.6 2.6 4.9 3.8 1.3 1.1 2.7 2.1 3 2.1 0.3 0 1.7 1 3.1 2.3 1.4 1.2 5.1 3.9 8.3 6 4.6 3.1 6.3 5 8.9 10 6.8 13.5 12.8 35.8 12.8 47.4 0 4.9 -0.2 5.4 -1.5 4.3 -1.7 -1.4 -4.4 1.1 -23.5 21.5 -9.8 10.5 -12.4 12.5 -16.1 12.5 -4.1 0 -5.8 -1 -7.4 -4.1 -3.4 -6.4 -2.4 -7.9 18.2 -29.2 5.7 -5.9 10.1 -11.2 9.8 -11.7 -0.3 -0.6 -3.4 -2.9 -6.8 -5.2 -3.4 -2.3 -11.3 -7.9 -17.5 -12.5 -6.2 -4.6 -11.9 -8.6 -12.6 -8.9 -0.7 -0.3 -5 3.4 -9.7 8.3 -18.2 19 -18.5 19.3 -22.8 19.3 -3.2 0 -4.4 -0.6 -6.6 -3.2 -4.7 -5.5 -2.6 -9.3 15.1 -27.4 4.1 -4.2 7.4 -8 7.4 -8.4 0 -0.6 -16.1 -14.5 -23.8 -20.4 -2.3 -1.8 -2.6 -1.8 -3.7 -0.3 -0.7 0.9 -1.7 1.7 -2.2 1.7 -0.6 0 -7.2 -5.9 -14.7 -13.1 -10 -9.6 -13.5 -13.6 -13 -14.8 1.6 -4.1 1.3 -5.1 -3.3 -10.7 -9 -10.8 -17.2 -22.4 -21.8 -30.9 -2.9 -5.2 -5.1 -8.2 -5.9 -7.9 -2.9 1.1 -16.1 25.8 -20.1 37.9 -7.1 21.2 -9 33.5 -8.2 53.7 0.9 25.7 7.7 47.5 21.5 69.7 3 4.9 4.8 6.9 5 5.8 0.6 -2.9 3.6 -1.8 6.7 2.5 l2.9 4.2 14.1 -14.7 c13.4 -14.1 16.5 -16.5 16.5 -13.2 0 2.1 0.8 1.9 4.7 -1.5 4 -3.6 7.9 -3.9 11.7 -0.9 6.9 5.4 5.4 9.9 -7.8 23.7 -9.1 9.4 -9.6 10.1 -8.6 12.7 1 2.5 0.6 3.2 -5 9.1 -3.3 3.6 -6 6.9 -6 7.3 0 0.5 5.8 6.1 12.9 12.6 7 6.4 13.4 12.7 14.1 14.1 1.5 2.7 3.5 3.1 4.7 1 0.7 -1.1 13.9 -15.4 30.3 -32.7 2.5 -2.6 5.8 -5.1 7.4 -5.5 3.6 -0.9 7.4 1.2 9.9 5.4 3.1 5.2 2.3 6.3 -25.5 34.9 -6.5 6.7 -11.8 12.6 -11.8 13.1 0 1 16.6 13.5 31 23.2 5.2 3.6 9.7 6.7 10 7 1.3 1.3 7 5 7.8 5 0.5 0 1.7 0.9 2.7 2 1.7 1.9 1.9 1.9 3.7 0.4 1.7 -1.6 1.8 -1.3 1.7 9.2 -0.1 17.7 4.6 32.3 14.1 43.8 2.6 3.2 4 5.8 4 7.7 0 1.6 -0.1 2.9 -0.2 2.8 -0.2 0 -19 -12.5 -41.8 -27.7z"/>
  <path d="M612.2 361.3 c-8.1 -4.4 -12.4 -11.2 -12.4 -19.4 0 -6.8 1.8 -11.3 6.2 -15.3 9.4 -8.4 20.6 -8.8 29.1 -0.9 11.4 10.6 9 28.1 -4.8 35.2 -5.3 2.6 -13.5 2.8 -18.1 0.4z"/>
  <path d="M679.4 361.1 c-4.6 -2.1 -10.1 -8.5 -11.5 -13.3 -5 -17.5 12.5 -33.3 28.6 -25.9 14.8 6.8 17.9 25.6 5.8 36.3 -5.4 4.9 -15.7 6.2 -22.9 2.9z"/>
  <path d="M578.5 303.6 c-4.8 -2.2 -9.2 -7.3 -11.6 -13.4 -1.9 -5 -2 -6.3 -1 -10.2 2.4 -9 8.2 -14.8 17.3 -17 6.4 -1.6 14.1 0.6 19.1 5.6 10.2 10.2 8.3 25.6 -4 33.5 -3.9 2.4 -5.7 2.9 -10.7 2.9 -3.4 -0.1 -7.4 -0.7 -9.1 -1.4z"/>
  <path d="M713.5 303.6 c-4.3 -1.9 -9.2 -7.3 -11.1 -12.3 -3.3 -8.6 0.6 -20.6 8.4 -25.8 16.2 -10.7 38.3 6.3 32 24.6 -1.6 5 -6.5 10.7 -10.9 12.9 -4.5 2.3 -13.8 2.6 -18.4 0.6z"/>
  <path d="M617.5 247.1 c-10.9 -2.8 -17.8 -10.9 -17.8 -21.1 0 -12.2 9.2 -21.5 21.3 -21.4 8.5 0.1 15.3 4.3 19.2 11.8 2.9 5.7 2.2 15.8 -1.4 21.3 -4.6 6.9 -14.3 11.2 -21.3 9.4z"/>
  <path d="M683 246.8 c-4.9 -1.4 -9.7 -5.3 -13.1 -10.6 -5.7 -9 -3 -21.3 5.9 -27.7 5.9 -4.1 15.3 -4.7 22.3 -1.5 10 4.7 14.6 17.4 10 27.6 -2.4 5.3 -9.1 10.9 -14.6 12.3 -5.1 1.3 -5.8 1.3 -10.5 -0.1z"/>
 </g>
 <g fill="#0dc8e6">
  <path d="M542.9 805.7 c22.9 -21.6 41.9 -45 61.3 -75.6 l7.2 -11.3 2.8 3.3 c5.4 6.6 11.4 15 16.5 23.5 5.1 8.4 5.2 8.6 3.6 11.2 -3.4 5.3 -20.1 28.8 -22.7 31.7 -1.4 1.7 -2.6 3.3 -2.6 3.7 0 0.8 -6.3 3.7 -16 7.5 -9.8 3.7 -31.3 9 -42 10.2 -5.2 0.6 -10.7 1.3 -12.1 1.6 -2.2 0.3 -1.6 -0.6 4 -5.8z"/>
  <path d="M655.1 704 c-2.9 -3.9 -9.2 -11.5 -14.1 -16.9 -4.9 -5.4 -8.5 -10.2 -8 -10.7 1.1 -1.2 7.4 -20.1 9.9 -30.2 4.1 -16 5.4 -24.7 5.5 -38.3 l0.1 -13.7 13 -13.7 12.9 -13.7 2.2 2.8 c1.3 1.5 4.6 7.2 7.4 12.6 l5.1 9.8 -0.2 10.7 c-0.5 28.6 -7.9 60.4 -22.2 94.4 -6.6 15.7 -5.5 15.1 -11.6 6.9z"/>
  <path d="M521 643.4 c-9.9 -7.1 -25.9 -17.4 -26.9 -17.4 -1.7 0 -11.2 -12.7 -14.6 -19.5 -1.9 -3.8 -4.2 -10.1 -5.1 -14 -1.9 -8 -2.3 -26.4 -0.6 -29.8 1 -2 3.9 -11.7 4.7 -15.7 0.6 -2.8 3.4 -10.5 8.5 -23 19.2 -47.3 22.8 -59.2 23.7 -78.8 0.4 -7.7 0.2 -13.1 -0.5 -14.5 -0.5 -1.2 -1.5 -6 -2.2 -10.7 -2 -14.8 -11.1 -39.2 -18.2 -49.3 l-2 -2.8 2.9 1.8 c13.3 8.3 37.8 25.8 41.8 29.9 6.1 6.1 12.8 18.8 15.4 29.5 2.6 10.1 3.7 24.7 2.3 30.2 -0.6 2.3 -2.1 8.5 -3.2 13.8 -3 13.5 -6.7 24.6 -15 44.9 -9.3 22.6 -15.5 40.8 -18.5 54 -2.3 10 -2.4 11.4 -1.5 25 0.6 8.2 1.9 18 3.1 22.4 2.1 8.4 7.3 20.6 10.9 25.6 1.2 1.7 2 3 1.8 3 -0.2 0 -3.2 -2.1 -6.8 -4.6z"/>
  <path d="M395.5 505.2 c-4.4 -3.8 -11.8 -10.5 -16.3 -15 l-8.4 -8.2 5 -5.8 c2.8 -3.1 6.6 -7.2 8.5 -9 l3.4 -3.3 1.8 7.3 c2.6 10.6 7 22.7 11.5 31.5 6 11.8 5.6 11.9 -5.5 2.5z"/>
  <path d="M352.5 459.7 l-4.5 -6.1 0 -13.5 c0 -12 0.4 -16.6 2.6 -29.6 2.5 -15.2 11.4 -39.4 22.8 -62.5 8.8 -17.7 6.2 -17.5 22.8 -1.5 7.9 7.6 14.2 14.1 14.1 14.4 -0.1 0.3 -1.9 4.4 -4.1 9.1 -9.7 21.1 -16.1 41.5 -17.7 57 -0.8 7.3 -0.1 6.3 -21.2 28.2 l-10.2 10.6 -4.6 -6.1z"/>
  <path d="M423.6 313.5 c-5.2 -5.2 -11.1 -11.5 -13.1 -13.9 l-3.6 -4.5 3.7 -5.3 c10.5 -15.2 25.5 -32.2 49.7 -56.6 l21.2 -21.3 18 -0.1 c15.3 0 37.7 2 39.2 3.5 0.1 0.2 -1.8 1.9 -4.5 3.8 -7.9 5.6 -31.1 26 -41.6 36.5 -18.9 18.8 -38.8 41.6 -53.1 60.7 -2.7 3.6 -5.3 6.7 -5.7 6.7 -0.5 0 -5 -4.3 -10.2 -9.5z"/>
 </g>
 <g fill="#e300f9">
  <path d="M646.2 303.6 c-3.7 -1.7 -8.6 -6.7 -10.9 -11 -1.1 -2.2 -1.4 -4.9 -1.1 -10.1 0.4 -6 1 -7.9 3.6 -11.7 8.3 -12.1 26.4 -11.3 35 1.6 2.7 4.1 3.2 5.7 3.2 11 0 8 -2.9 14 -8.8 18.1 -3.5 2.4 -5.5 3 -11 3.2 -4.3 0.2 -7.9 -0.2 -10 -1.1z"/>
 </g>
</svg>